<?xml version="1.0" encoding="utf-8"?>
<!-- Generator: Adobe Illustrator 12.0.0, SVG Export Plug-In . SVG Version: 6.00 Build 51448)  -->
<!DOCTYPE svg PUBLIC "-//W3C//DTD SVG 1.1//EN" "http://www.w3.org/Graphics/SVG/1.1/DTD/svg11.dtd" [
	<!ENTITY ns_svg "http://www.w3.org/2000/svg">
	<!ENTITY ns_xlink "http://www.w3.org/1999/xlink">
]>
<svg  version="1.1" id="レイヤー_1" xmlns="&ns_svg;" xmlns:xlink="&ns_xlink;" width="382.538" height="378.645"
	 viewBox="0 0 382.538 378.645" overflow="visible" enable-background="new 0 0 382.538 378.645" xml:space="preserve">
<path d="M112.017,0c-9.814,0.111-14.275,2.565-17.176,4.238c-2.899,1.673-4.126,2.788-4.238,4.237
	c-0.111,1.45,1.45,3.458,4.462,3.569c3.011,0.111,10.148,1.004,14.164,2.454c4.015,1.449,9.702,3.681,12.714,6.134
	s5.242,4.907,6.692,7.026c1.449,2.119,6.803,13.16,9.257,20.855c2.453,7.696,14.944,47.066,14.944,47.066s0.805,3.873-1.81,4.628
	c-2.951,0.853-65.871,15.161-65.871,15.161s-40.313,7.668-53.092,3.485s-19.4-8.597-24.28-13.941C2.904,99.57,0,102.242,0,105.146
	s1.045,8.945,2.788,12.314c1.742,3.369,7.899,12.198,13.012,16.846c5.111,4.646,12.547,9.991,17.193,12.314
	s14.405,6.738,19.053,2.672c4.646-4.066,6.738-5.925,10.107-7.435c3.369-1.511,14.057-6.273,22.072-8.714
	c8.017-2.439,71.332-19.808,71.332-19.808s2.207-0.058,2.672,1.801c0.465,1.859,21.492,81.903,21.492,81.903s0,2.904-1.859,3.601
	c-1.858,0.697-52.627,15.104-65.406,18.356s-40.893,10.223-47.398,11.152s-16.729,2.788-23.468,2.323s-12.779-0.93-19.285-4.182
	c-6.505-3.253-8.906-5.499-12.546-10.146c-3.641-4.646-10.456-11.772-9.682-1.472s3.718,18.278,7.59,23.313
	c3.873,5.034,10.688,11.617,16.342,15.955c5.654,4.337,10.844,8.287,15.181,9.913c4.337,1.627,8.597,1.627,12.314-0.387
	s5.499-5.344,8.441-6.816c2.943-1.471,121.112-43.604,121.112-43.604s3.602-1.104,4.414,2.323
	c0.96,4.046,29.744,124.582,29.744,124.582s3.802,15.843,6.337,20.405c2.534,4.563,9.896,13.489,14.268,15.222
	c4.37,1.733,11.906,1.432,14.017-1.507c2.109-2.939,3.994-7.234,3.466-12.51c-0.527-5.274-3.24-14.242-4.672-18.161
	c-1.432-3.918-24.725-78.464-24.725-78.464l-17.658-54.988c0,0-0.271-2.305,3.098-3.234c3.763-1.037,68.042-16.112,68.042-16.112
	s36.31-7.263,53.169-7.651c16.858-0.39,33.198-0.778,40.33,0.389c7.133,1.167,10.553-2.667,11.327-4.216s0.154-6.893-1.781-8.829
	c-1.937-1.937-19.518-11.617-24.475-13.709c-4.957-2.091-17.194-6.196-20.989-6.351c-3.795-0.155-7.822,1.007-10.378,3.098
	c-2.556,2.092-5.653,5.499-9.836,7.048c-4.183,1.55-109.592,30.593-109.592,30.593s-3.427,1.394-4.705-2.207
	c-1.566-4.416-22.537-81.032-22.537-81.032s-0.473-1.866,2.568-2.627c3.042-0.76,49.175-9.759,54.244-10.393
	s31.938-4.942,35.867-5.196c3.929-0.253,24.714-1.521,28.77-1.394s8.027-1.398,8.414-3.335c0.387-1.936-1.355-6.66-3.679-8.868
	c-2.43-2.309-13.825-8.132-21.337-10.494c-5.982-1.881-21.454-4.995-24.707-4.53c-3.253,0.464-5.498,6.002-10.688,9.564
	s-13.646,7.22-19.059,8.859c-5.413,1.64-24.931,6.807-28.785,7.544c-3.854,0.738-24.109,4.183-24.109,4.183
	s-2.051-0.082-2.707-2.132c-0.655-2.051-10.66-56.913-10.66-56.913s-0.492-2.542,1.558-3.444c2.051-0.902,5.167-3.69,5.987-4.674
	c0.819-0.984,1.968-3.199,1.722-4.757c-0.246-1.559-2.05-3.608-3.198-4.675c-1.148-1.065-11.728-7.954-16.566-9.595
	c-4.838-1.64-9.102-3.198-17.303-4.92C126.052,0.217,112.017,0,112.017,0z"/>
</svg>
